# xmcd
#
# Track frame offsets: 
#        150
#        10294
#        21234
#        33486
#        49442
#        60046
#        82699
#        95554
#        116167
#        133785
#        150348
#        163938
#        186504
#        203782
#        216816
#        231394
#
# Disc length: 3308 seconds
#
# Revision: 0
# Processed by: cddbd v1.5.2PL0 Copyright (c) Steve Scherf et al.
# Submitted via: ExactAudioCopy v0.99pb5
#
DISCID=d90cea10
DTITLE=Swoja Wiara - Kapela Podwórkowa
DYEAR=1900
DGENRE=Country
TTITLE0=Swoja Wiara
TTITLE1=Ludzie, co sie dzieje
TTITLE2=Goslinioki
TTITLE3=Bana
TTITLE4=Muzyka plynaca z serca
TTITLE5=Kabaret
TTITLE6=Corka inzyniera
TTITLE7=Ale jaja
TTITLE8=Spiewaj z nami
TTITLE9=Lodka
TTITLE10=Piwo
TTITLE11=Tango spelnionych marzen
TTITLE12=Jedziemy na wies
TTITLE13=Pepita
TTITLE14=Kominiarski fach
TTITLE15=Bando, bando
EXTD=
EXTT0=
EXTT1=
EXTT2=
EXTT3=
EXTT4=
EXTT5=
EXTT6=
EXTT7=
EXTT8=
EXTT9=
EXTT10=
EXTT11=
EXTT12=
EXTT13=
EXTT14=
EXTT15=
PLAYORDER=
